<svg width="36" height="27" viewBox="0 0 36 27" fill="none" xmlns="http://www.w3.org/2000/svg">
<g clip-path="url(#clip0_91_236)">
<path d="M0 13.4497C4.12716 9.22925 8.08331 5.13295 12.0987 1.09704C13.5719 -0.382455 15.6141 -0.332132 16.9361 1.04672C18.1792 2.3417 18.0181 4.44185 16.5053 5.95154C15.2557 7.19955 13.9534 8.39724 12.6742 9.61841C12.7334 9.7828 12.7925 9.94719 12.8517 10.1116C13.345 10.1116 13.8416 10.1116 14.3349 10.1116C20.1392 10.1116 25.9403 10.1049 31.7446 10.1216C32.3957 10.1216 33.0732 10.1518 33.6881 10.3364C35.1779 10.7792 35.9638 11.9266 35.9934 13.443C36.023 14.9896 35.2107 16.1034 33.7046 16.5227C33.0304 16.7106 32.3069 16.7844 31.6065 16.7878C25.9139 16.8079 20.2181 16.7978 14.5256 16.7978C13.9929 16.7978 13.4601 16.7978 12.4703 16.7978C13.9995 18.3746 15.2491 19.6461 16.4856 20.9344C18.1463 22.6655 18.3173 24.5912 16.9493 25.9499C15.4431 27.4462 13.5851 27.3456 11.9013 25.6279C7.95834 21.6121 4.03179 17.5762 0 13.4497Z" fill="black"/>
</g>
<defs>
<clipPath id="clip0_91_236">
<rect width="36" height="27" fill="white"/>
</clipPath>
</defs>
</svg>
