<svg width="29" height="32" viewBox="0 0 29 32" fill="none" xmlns="http://www.w3.org/2000/svg">
<g clip-path="url(#clip0_177_25)">
<path d="M0.00198069 13.6195C0.00198069 10.2322 -0.00379976 6.84485 0.00438921 3.45704C0.00824283 1.95418 0.678292 0.857404 2.04537 0.262236C2.41869 0.100095 2.85367 0.0143711 3.26071 0.0133914C9.25695 -0.00228384 15.2527 -0.00228384 21.249 0.00506393C23.1734 0.00751318 24.5693 1.45698 24.5722 3.43598C24.5775 6.8233 24.5732 10.2106 24.5737 13.5984C24.5737 14.0378 24.5766 14.0413 24.9552 13.8566C25.9986 13.3486 27.0964 13.1958 28.239 13.3246C28.6383 13.3697 28.9071 13.617 28.9528 14.03C29.2178 16.4347 28.382 18.3519 26.435 19.7416C26.04 20.0233 25.566 20.1899 25.1296 20.4118C25.0684 20.4431 25.0135 20.4867 24.9557 20.5244C25.0014 20.5837 25.0371 20.6577 25.0949 20.7008C26.1474 21.4885 26.8945 22.5049 27.3189 23.7628C28.225 26.4497 27.1908 29.4632 24.8396 30.995C21.6324 33.0842 17.4368 31.7964 15.8924 28.2459C15.7889 28.0079 15.7026 27.761 15.6222 27.5136C15.5745 27.3662 15.4936 27.3015 15.3413 27.3079C15.1569 27.3152 14.9724 27.3089 14.7874 27.3089C10.9665 27.3089 7.14613 27.3098 3.32525 27.3084C1.4336 27.3074 0.0039075 25.853 0.00294409 23.9294C0.00101728 20.4931 0.00246239 17.0568 0.00246239 13.62L0.00198069 13.6195ZM21.7321 17.868C21.7851 17.8244 21.8029 17.8165 21.8082 17.8038C21.8265 17.7587 21.8439 17.7127 21.8564 17.6657C22.0679 16.8667 22.433 16.1476 22.9267 15.4907C23.0019 15.3908 23.0385 15.2365 23.039 15.1077C23.0452 11.2222 23.0332 7.33715 23.0515 3.45165C23.0568 2.32353 22.2138 1.52507 21.1729 1.55446C19.9378 1.58924 18.7007 1.56279 17.4647 1.56279C12.7849 1.56279 8.10568 1.56377 3.42593 1.56279C3.08488 1.56279 2.75251 1.58875 2.44855 1.76804C1.81126 2.14326 1.52802 2.71296 1.52898 3.45312C1.53283 5.68978 1.52994 7.92595 1.52994 10.1626C1.52994 14.7011 1.52609 19.2391 1.53861 23.7775C1.53958 24.1185 1.59594 24.4898 1.73756 24.7935C2.042 25.446 2.60173 25.7624 3.31321 25.7634C7.23042 25.7678 11.1472 25.7668 15.0644 25.7673C15.0885 25.7673 15.1125 25.7658 15.1366 25.7673C15.2994 25.7786 15.3582 25.6992 15.3731 25.5361C15.4054 25.179 15.4502 24.8229 15.5056 24.4692C15.547 24.2047 15.5461 24.1944 15.2768 24.1944C14.0648 24.1949 12.8529 24.1959 11.6409 24.1939C11.0527 24.1929 10.7555 23.8897 10.7546 23.2847C10.7517 22.0684 10.7522 20.8521 10.7555 19.6363C10.757 19.0539 11.0378 18.7507 11.6057 18.7463C12.8336 18.7365 14.0619 18.7355 15.2898 18.7428C15.8404 18.7463 16.1232 19.0559 16.1241 19.6221C16.126 20.5039 16.1241 21.3851 16.1256 22.2668C16.1256 22.3589 16.1376 22.451 16.1439 22.5431C16.2575 22.4878 16.3178 22.4182 16.3688 22.3418C17.3125 20.9388 18.5904 20.0326 20.2273 19.6667C20.4257 19.6226 20.4667 19.5281 20.4431 19.3409C20.3414 18.5214 20.1131 17.7377 19.7118 17.024C19.4069 16.4817 19.0336 15.9781 18.6767 15.4677C18.4671 15.1684 18.419 14.8387 18.5837 14.5536C18.7417 14.2798 19.0596 14.0927 19.3588 14.1907C19.5808 14.2636 19.8043 14.4204 19.959 14.6007C20.6401 15.3947 21.1618 16.2902 21.5149 17.2841C21.5818 17.4727 21.655 17.6598 21.7331 17.868H21.7321ZM21.5081 21.0706C18.9835 21.0613 16.905 23.1623 16.8924 25.7359C16.8799 28.3052 18.9532 30.4434 21.4648 30.4513C24.025 30.4591 26.1108 28.3581 26.1161 25.7673C26.1214 23.1824 24.0583 21.0799 21.5081 21.0706ZM23.2085 18.8403C23.1922 19.17 23.2162 19.2013 23.4764 19.1866C25.6161 19.0657 27.3565 17.2899 27.4798 15.1145C27.4938 14.872 27.4095 14.8221 27.1932 14.8319C25.1228 14.9259 23.3131 16.7428 23.2085 18.8403ZM13.4396 20.2952C13.127 20.2952 12.8138 20.2981 12.5012 20.2937C12.3495 20.2917 12.284 20.3559 12.2845 20.5122C12.2869 21.1402 12.2869 21.7682 12.282 22.3961C12.2806 22.5769 12.3601 22.6386 12.5316 22.6372C13.1409 22.6323 13.7508 22.6337 14.3601 22.6386C14.5316 22.6401 14.6058 22.5745 14.6039 22.3932C14.5971 21.7735 14.5966 21.1534 14.6024 20.5337C14.6039 20.3491 14.5225 20.2903 14.3543 20.2932C14.0499 20.2986 13.745 20.2947 13.4401 20.2947L13.4396 20.2952Z" fill="black"/>
<path d="M12.3086 10.1409C9.53928 10.1409 6.76997 10.1409 4.00065 10.1409C3.35613 10.1409 3.08301 9.85922 3.08301 9.19988C3.08301 7.74699 3.08301 6.29409 3.08301 4.84119C3.08301 4.199 3.3624 3.91145 3.98861 3.91145C9.53494 3.91096 15.0818 3.91047 20.6281 3.91145C21.2066 3.91145 21.4952 4.20732 21.4961 4.80396C21.4981 6.28968 21.4985 7.77491 21.4971 9.26063C21.4966 9.84943 21.2028 10.1409 20.6161 10.1409C17.8467 10.1409 15.0774 10.1409 12.3086 10.1409ZM12.2595 8.59394C14.6988 8.59394 17.1382 8.59394 19.5775 8.59394C19.973 8.59394 19.9744 8.59296 19.9749 8.18148C19.9764 7.38989 19.9768 6.59829 19.9759 5.80718C19.9759 5.47947 19.9542 5.45742 19.6353 5.45742C14.7325 5.45742 9.82975 5.45742 4.92697 5.4584C4.63024 5.4584 4.60856 5.48045 4.60808 5.77436C4.60664 6.59045 4.60712 7.40654 4.60664 8.22214C4.60664 8.58953 4.61001 8.59394 4.96551 8.59443C7.39666 8.59443 9.8283 8.59443 12.2595 8.59443V8.59394Z" fill="black"/>
<path d="M16.1252 14.4633C16.1252 15.0756 16.1267 15.6875 16.1252 16.2998C16.1238 16.845 15.829 17.1585 15.2981 17.1609C14.0621 17.1663 12.8265 17.1668 11.5904 17.1619C11.0572 17.1599 10.7581 16.8504 10.7566 16.3047C10.7532 15.0722 10.7528 13.8402 10.7566 12.6078C10.7585 12.0209 11.0582 11.7167 11.6343 11.7148C12.8462 11.7113 14.0577 11.7108 15.2697 11.7138C15.8265 11.7153 16.1252 12.0307 16.1257 12.6024C16.1257 13.2225 16.1257 13.8427 16.1257 14.4633H16.1252ZM13.4363 15.6174C13.7494 15.6174 14.0626 15.613 14.3752 15.6194C14.5404 15.6223 14.604 15.5508 14.603 15.3852C14.5987 14.7567 14.5982 14.1283 14.6021 13.5003C14.603 13.3283 14.5245 13.2705 14.367 13.271C13.749 13.2735 13.1309 13.2725 12.5134 13.27C12.3684 13.2695 12.2855 13.321 12.286 13.4821C12.2875 14.1185 12.287 14.7553 12.2851 15.3916C12.2846 15.5572 12.3588 15.6238 12.5216 15.6203C12.8265 15.613 13.1314 15.6184 13.4363 15.6179V15.6174Z" fill="black"/>
<path d="M6.53381 18.7436C7.14413 18.7436 7.75397 18.7407 8.36429 18.7451C8.91487 18.749 9.21353 19.0513 9.21449 19.6077C9.21738 20.8324 9.21786 22.057 9.21497 23.2811C9.21353 23.8988 8.91969 24.1927 8.30985 24.1937C7.12197 24.1957 5.93361 24.1962 4.74573 24.1937C4.13397 24.1927 3.84687 23.8969 3.84687 23.2752C3.84687 22.0834 3.84591 20.8916 3.84832 19.6998C3.84976 19.0062 4.11084 18.7451 4.79968 18.7436C5.37772 18.7422 5.95577 18.7436 6.53381 18.7436ZM7.68749 21.4824C7.68749 21.165 7.68364 20.8471 7.68894 20.5296C7.69183 20.366 7.63017 20.2916 7.46398 20.2925C6.83921 20.297 6.21444 20.2965 5.58967 20.294C5.43697 20.2935 5.37339 20.3606 5.37387 20.5144C5.37676 21.1415 5.37676 21.7685 5.37387 22.396C5.37291 22.5576 5.4336 22.6355 5.59979 22.635C6.21637 22.6326 6.83295 22.6331 7.45001 22.6379C7.62535 22.6394 7.69327 22.561 7.6899 22.3867C7.68364 22.0854 7.68797 21.7841 7.68797 21.4829L7.68749 21.4824Z" fill="black"/>
<path d="M6.50625 17.1634C5.90412 17.1634 5.30247 17.1668 4.70035 17.1624C4.14928 17.159 3.8511 16.8592 3.84966 16.3022C3.84628 15.0697 3.84532 13.8373 3.84918 12.6048C3.8511 12.0072 4.13675 11.7167 4.72588 11.7148C5.93784 11.7099 7.14981 11.7099 8.36177 11.7133C8.90947 11.7148 9.2115 12.0214 9.21343 12.5803C9.21776 13.829 9.21776 15.0781 9.21343 16.3267C9.2115 16.8553 8.91188 17.156 8.38441 17.1614C7.7582 17.1678 7.13247 17.1629 6.50625 17.1629V17.1634ZM6.50288 15.6179C6.81551 15.6179 7.12861 15.6135 7.44124 15.6198C7.61369 15.6233 7.69028 15.5523 7.68932 15.3749C7.68594 14.7469 7.68643 14.1189 7.68835 13.4914C7.68835 13.3362 7.61706 13.2705 7.46821 13.271C6.84296 13.273 6.21723 13.274 5.59198 13.271C5.42579 13.27 5.36943 13.3465 5.37088 13.511C5.37714 14.1307 5.37762 14.7504 5.37329 15.37C5.37184 15.5459 5.43591 15.6233 5.61317 15.6194C5.9099 15.6125 6.20663 15.6174 6.50336 15.6179H6.50288Z" fill="black"/>
<path d="M18.8602 25.1156C18.1896 25.12 17.8187 24.5116 18.0952 23.9708C18.5085 23.1631 19.1289 22.5659 19.9498 22.1966C20.3226 22.0286 20.7643 22.202 20.9368 22.5596C21.1193 22.9397 20.9888 23.3987 20.6083 23.5863C20.0909 23.8415 19.7027 24.2167 19.4266 24.7267C19.2898 24.9799 19.0625 25.1083 18.8606 25.1156H18.8602Z" fill="black"/>
</g>
<defs>
<clipPath id="clip0_177_25">
<rect width="29" height="32" fill="white"/>
</clipPath>
</defs>
</svg>
