<svg width="17" height="17" viewBox="0 0 17 17" fill="none" xmlns="http://www.w3.org/2000/svg">
<g clip-path="url(#clip0_99_550)">
<path d="M7.99928 16.9929C6.3433 16.9929 4.68732 17.0029 3.03167 16.988C2.37005 16.9819 1.74243 16.8247 1.20025 16.405C0.523424 15.8814 0.108134 15.2044 0.0611998 14.3493C0.0110284 13.4338 0.00714417 12.5151 0.004231 11.5978C-0.00256641 9.37834 -0.000947981 7.15892 0.00746786 4.9395C0.00940998 4.45472 0.0327154 3.968 0.0835341 3.48613C0.159924 2.75896 0.526984 2.18313 1.07207 1.70612C1.68708 1.16788 2.42637 1.02238 3.20678 1.01168C4.11278 0.999371 5.0191 0.999047 5.9251 1.00132C6.52748 1.00261 6.91137 1.33638 6.991 1.9106C7.0635 2.43167 6.62297 2.97543 6.09115 2.98969C5.46579 3.00654 4.83978 2.99487 4.21409 3.00071C3.7988 3.00459 3.38352 3.0114 2.96887 3.02728C2.4021 3.04867 2.03925 3.40091 2.03083 3.96897C2.01173 5.21073 2.00494 6.45249 2.00202 7.69457C1.99781 9.58994 2.0004 11.4856 2.00267 13.381C2.00267 13.6075 2.01724 13.8344 2.02889 14.0609C2.05673 14.6053 2.41051 14.9682 2.95787 14.9799C3.87455 14.9993 4.79123 15.0074 5.70823 15.0087C7.93066 15.0123 10.1531 15.01 12.3752 15.0074C12.6015 15.0074 12.828 14.9928 13.0543 14.9812C13.5864 14.9536 13.9561 14.5962 13.9671 14.0618C13.9872 13.0631 13.9933 12.0644 13.9962 11.0653C13.9975 10.6357 14.1694 10.3119 14.5487 10.1146C15.1712 9.79085 15.9532 10.216 15.9775 10.9163C16.0066 11.7575 15.9856 12.6004 15.9869 13.4429C15.9875 13.9131 15.9726 14.381 15.8568 14.8409C15.6716 15.5758 15.2269 16.1179 14.6112 16.5321C14.0351 16.9196 13.3773 16.9942 12.7079 16.9968C11.1384 17.0026 9.56884 16.9987 7.99928 16.9987C7.99928 16.9968 7.99928 16.9948 7.99928 16.9929Z" fill="white"/>
<path d="M13.5279 2.01494C13.4764 2.01203 13.4246 2.00717 13.3731 2.00684C12.6125 2.00587 11.8521 2.00749 11.0915 2.00393C10.5554 2.00133 10.1667 1.72686 10.0353 1.26801C9.86114 0.659443 10.3069 0.0207395 10.939 0.0136104C12.2389 -0.000647853 13.5389 0.00712935 14.8388 0.00518505C15.2162 0.00453695 15.5939 0.00518505 15.9714 2.48401e-07C16.4902 -0.00648076 16.944 0.379787 16.9793 0.898916C17.0078 1.31824 16.9987 1.74047 16.9994 2.16142C17.001 3.40868 17.0004 4.65628 16.9978 5.90355C16.9968 6.43985 16.7346 6.82029 16.2818 6.95704C15.6551 7.14596 15.0204 6.7046 15.0081 6.05067C14.9935 5.27327 15.0029 4.49555 15.0019 3.71783C15.0019 3.62839 15.0019 3.53928 15.0019 3.39767C14.7362 3.66598 14.507 3.89865 14.2762 4.13034C12.775 5.63621 11.2718 7.14045 9.7731 8.64858C9.48308 8.94022 9.14677 9.06887 8.74604 8.96939C8.04882 8.79602 7.76107 7.9321 8.22523 7.38187C8.46832 7.09411 8.74896 6.83779 9.016 6.57077C10.481 5.10509 11.947 3.64006 13.4133 2.17567C13.455 2.13387 13.5075 2.10276 13.5551 2.06647C13.546 2.04929 13.5369 2.0318 13.5279 2.01462V2.01494Z" fill="white"/>
</g>
<defs>
<clipPath id="clip0_99_550">
<rect width="17" height="17" fill="white"/>
</clipPath>
</defs>
</svg>
