<svg width="20" height="28" viewBox="0 0 20 28" fill="none" xmlns="http://www.w3.org/2000/svg">
<g clip-path="url(#clip0_7_648)">
<path d="M3.91488 1.99404C3.91488 1.43792 3.466 0.987091 2.91227 0.987091C2.35855 0.987091 1.90967 1.43792 1.90967 1.99404V26.126C1.90967 26.6821 2.35855 27.1329 2.91227 27.1329C3.466 27.1329 3.91488 26.6821 3.91488 26.126V1.99404Z" fill="#838383"/>
<path d="M11.1893 1.99404C11.1893 1.43792 10.7404 0.987091 10.1867 0.987091C9.63296 0.987091 9.18408 1.43792 9.18408 1.99404V26.126C9.18408 26.6821 9.63296 27.1329 10.1867 27.1329C10.7404 27.1329 11.1893 26.6821 11.1893 26.126V1.99404Z" fill="#838383"/>
<path d="M18.0902 1.99404C18.0902 1.43792 17.6413 0.987091 17.0876 0.987091C16.5338 0.987091 16.085 1.43792 16.085 1.99404V26.126C16.085 26.6821 16.5338 27.1329 17.0876 27.1329C17.6413 27.1329 18.0902 26.6821 18.0902 26.126V1.99404Z" fill="#838383"/>
<path d="M2.90799 23.4177C4.51402 23.4177 5.81597 22.1157 5.81597 20.5097C5.81597 18.9036 4.51402 17.6017 2.90799 17.6017C1.30195 17.6017 0 18.9036 0 20.5097C0 22.1157 1.30195 23.4177 2.90799 23.4177Z" fill="#838383"/>
<path d="M10.1909 10.1277C11.797 10.1277 13.0989 8.82576 13.0989 7.21972C13.0989 5.61369 11.797 4.31174 10.1909 4.31174C8.58491 4.31174 7.28296 5.61369 7.28296 7.21972C7.28296 8.82576 8.58491 10.1277 10.1909 10.1277Z" fill="#838383"/>
<path d="M17.0833 16.968C18.6893 16.968 19.9913 15.666 19.9913 14.06C19.9913 12.454 18.6893 11.152 17.0833 11.152C15.4772 11.152 14.1753 12.454 14.1753 14.06C14.1753 15.666 15.4772 16.968 17.0833 16.968Z" fill="#838383"/>
</g>
<defs>
<clipPath id="clip0_7_648">
<rect width="20" height="26.1458" fill="white" transform="translate(0 0.987091)"/>
</clipPath>
</defs>
</svg>
