<svg width="28" height="23" viewBox="0 0 28 23" fill="none" xmlns="http://www.w3.org/2000/svg">
<path d="M13.5634 3.62708C15.0894 2.56157 16.4212 1.36577 17.9608 0.614332C20.8095 -0.774556 24.3251 0.28863 26.1092 2.82678C28.0053 5.52314 27.8659 8.83832 25.6364 11.3695C22.5639 14.8592 19.4297 18.2953 16.3161 21.7478C14.4703 23.795 12.8964 23.7857 11.0346 21.7082C8.18824 18.5326 5.31448 15.378 2.53439 12.1419C1.65262 11.1159 0.773128 9.95269 0.339095 8.69408C-0.629483 5.88839 0.540121 2.9687 3.04152 1.18896C5.3556 -0.455833 8.77533 -0.35347 11.1671 1.4914C12.042 2.16607 12.8255 2.96404 13.5634 3.62708ZM13.8307 9.05701C12.8438 7.97521 12.1494 7.16095 11.3978 6.40486C10.644 5.64411 9.89467 4.85545 9.03575 4.23196C7.41612 3.05478 5.49495 3.27811 4.29565 4.66235C3.07579 6.07218 3.16031 7.71465 4.5812 9.33618C6.27621 11.2718 7.98721 13.1934 9.70279 15.1081C11.0026 16.5575 12.3207 17.9882 13.6274 19.426C13.8215 19.305 13.9358 19.2631 14.0066 19.1864C17.0859 15.7618 20.1767 12.3466 23.2309 8.89881C24.0921 7.92636 24.2772 6.7515 23.7152 5.5464C23.1555 4.35061 22.2418 3.6108 20.8871 3.51076C19.4777 3.4084 18.372 4.04352 17.4491 5.02062C16.2681 6.26993 15.1488 7.57972 13.8284 9.05934L13.8307 9.05701Z" fill="black"/>
</svg>
