<svg width="205" height="32" viewBox="0 0 205 32" fill="none" xmlns="http://www.w3.org/2000/svg">
<g clip-path="url(#clip0_99_481)">
<path d="M49.6118 31.4946H42.918V8.88506C44.9134 8.86411 46.9432 8.84054 49.1921 8.9191V14.743C49.3082 14.7587 49.4217 14.7744 49.5379 14.7901C49.7385 14.2926 49.947 13.795 50.1423 13.2949C52.0533 8.35609 58.2984 6.76133 62.3342 10.2206C64.1475 11.7734 64.8364 13.8972 64.8945 16.1859C64.979 19.5011 64.9315 22.8163 64.9394 26.1342C64.942 27.873 64.9394 29.6144 64.9394 31.4553H58.2878C58.2614 30.9865 58.2166 30.5257 58.2139 30.0648C58.2086 26.2258 58.2298 22.3842 58.1928 18.5453C58.1849 17.7283 58.1004 16.8746 57.8417 16.1073C57.2531 14.3607 55.8621 13.5594 53.8086 13.6144C51.8078 13.6693 50.3904 14.6016 49.9153 16.3404C49.6883 17.1679 49.6302 18.0608 49.6223 18.925C49.5906 22.5911 49.6091 26.2546 49.6091 29.9207C49.6091 30.3973 49.6091 30.8766 49.6091 31.4919L49.6118 31.4946Z" fill="black"/>
<path d="M111.789 16.3771H105.551C105.826 13.8134 106.816 11.7342 108.893 10.328C109.851 9.68116 110.984 9.19409 112.105 8.89294C114.523 8.24875 116.999 8.29589 119.409 8.94793C122.529 9.79114 124.516 11.7447 124.965 15.0285C125.036 15.547 125.108 16.0681 125.108 16.5892C125.118 21.2556 125.115 25.9221 125.113 30.5885C125.113 30.8451 125.071 31.1044 125.042 31.4579H118.746V26.8884C118.643 26.8596 118.538 26.8334 118.435 26.8046C118.29 27.124 118.129 27.4357 118.005 27.763C116.611 31.4579 113.116 32.9034 109.162 31.4186C105.992 30.2298 104.366 26.4772 105.583 23.162C106.056 21.8815 106.913 20.9204 108.099 20.2448C109.643 19.3623 111.329 18.9119 113.074 18.6055C114.412 18.3699 115.753 18.1132 117.06 17.7545C117.873 17.5319 118.387 16.9348 118.369 16.0052C118.35 15.0782 117.928 14.4262 117.081 14.0569C116.843 13.9522 116.585 13.8789 116.329 13.8317C114.024 13.4075 112.781 14.1015 111.786 16.3744L111.789 16.3771ZM118.269 21.4285C116.949 21.8134 115.737 22.1486 114.536 22.5204C113.998 22.688 113.438 22.8504 112.958 23.1332C111.556 23.9555 111.511 25.9116 112.839 26.8465C114.784 28.216 117.846 27.0769 118.24 24.7515C118.424 23.6648 118.271 22.5231 118.271 21.4311L118.269 21.4285Z" fill="black"/>
<path d="M153.58 16.3824C153.844 13.8213 154.844 11.7526 156.906 10.3385C157.859 9.68385 158.994 9.20202 160.118 8.89826C162.536 8.24883 165.012 8.29858 167.424 8.94539C170.55 9.78336 172.545 11.729 172.983 15.0207C173.076 15.712 173.147 16.4086 173.149 17.1051C173.165 21.5987 173.157 26.0924 173.155 30.586C173.155 30.8426 173.115 31.1019 173.083 31.4554H166.793V26.8753C166.683 26.8439 166.569 26.8125 166.458 26.7785C166.305 27.1346 166.136 27.4855 166.002 27.8495C165.08 30.3634 163.315 31.8037 160.591 31.9084C157.708 32.0184 155.285 31.1568 153.91 28.4099C152.218 25.0397 153.443 21.3395 156.932 19.8835C158.73 19.1346 160.72 18.8334 162.628 18.3464C163.394 18.15 164.188 18.0583 164.935 17.8148C166.028 17.456 166.435 16.8616 166.398 15.9058C166.358 14.9343 165.785 14.2325 164.774 13.9182C162.494 13.206 160.807 14.0308 159.828 16.3824H153.577H153.58ZM166.318 21.4181C164.964 21.8109 163.711 22.1618 162.465 22.5415C161.966 22.6933 161.448 22.8452 161.002 23.1071C159.556 23.9529 159.548 26.0138 160.958 26.9068C163.014 28.2082 165.92 27.0089 166.289 24.6285C166.453 23.5758 166.316 22.4786 166.316 21.4207L166.318 21.4181Z" fill="black"/>
<path d="M151.381 18.2128C149.193 18.2128 147.224 18.2023 145.252 18.218C144.676 18.2233 144.531 17.8671 144.386 17.422C143.753 15.4737 142.364 14.3817 140.342 14.1774C138.392 13.9784 136.684 14.5414 135.433 16.1283C133.781 18.2233 133.955 22.4367 135.676 24.4792C137.835 27.0429 143.396 26.9643 144.568 22.8295C144.626 22.6226 144.708 22.421 144.84 22.0465H151.455C151.349 24.5185 150.473 26.5427 148.931 28.2868C147.53 29.8737 145.753 30.8845 143.697 31.4004C141.002 32.0786 138.289 32.11 135.61 31.3794C131.711 30.3162 129.019 27.9123 128.029 23.9607C126.836 19.2 127.546 14.8321 131.379 11.3833C134.008 9.01868 137.241 8.34568 140.693 8.50804C142.882 8.61017 144.951 9.14176 146.793 10.3621C149.528 12.1715 150.914 14.7693 151.373 18.2128H151.381Z" fill="black"/>
<path d="M86.7293 15.437H80.6162C79.534 13.397 77.7392 12.7214 75.5431 13.4992C74.577 13.8422 74.0016 14.5597 74.0095 15.4108C74.0201 16.2959 74.5454 16.9034 75.6988 17.1024C76.95 17.3198 78.238 17.3381 79.4892 17.5581C80.867 17.799 82.2606 18.0556 83.5751 18.5139C85.5521 19.2052 86.6977 20.6952 87.0725 22.7509C87.7086 26.2311 86.402 29.2452 83.166 30.6854C79.0272 32.529 74.7776 32.4792 70.7313 30.2743C68.6329 29.1299 67.3501 26.8151 67.292 24.5211H73.6822C74.9334 26.7784 76.6174 27.4985 79.0114 26.8098C80.2414 26.4563 80.8749 25.6655 80.8089 24.5604C80.7482 23.5522 80.1965 22.9525 78.9005 22.7509C77.3828 22.5152 75.844 22.4236 74.321 22.2324C72.8323 22.0465 71.3621 21.7532 70.1004 20.8759C67.973 19.4016 67.1706 16.508 68.0812 13.7087C68.8519 11.344 70.594 9.94566 72.8561 9.18886C75.7648 8.21734 78.7475 8.18854 81.68 9.08935C84.6837 10.0111 86.4759 12.2946 86.7293 15.437Z" fill="black"/>
<path d="M102.886 26.2233V31.513C99.9373 32.1048 97.0892 32.165 94.4048 30.7012C91.9158 29.3421 91.1899 26.9984 91.1371 24.3929C91.0791 21.515 91.1213 18.6344 91.1213 15.7565C91.1213 15.2799 91.1213 14.8059 91.1213 14.2063C90.2028 14.1513 89.3502 14.0989 88.4316 14.0439V9.57125C91.7997 9.31462 93.5602 7.48942 93.5576 4.09302H97.8256V8.85898H103.688V14.0884H98.1107C97.9999 14.3372 97.9075 14.4524 97.9075 14.565C97.8996 17.5294 97.8547 20.4963 97.9207 23.4606C97.9603 25.2439 98.8445 26.0767 100.618 26.2154C101.315 26.2704 102.02 26.2233 102.886 26.2233Z" fill="black"/>
<path d="M9.37532 10.5716V0.581398C11.4025 0.474033 13.3451 0.53688 15.5148 0.552592V10.5925C15.6309 10.6266 15.7471 10.6606 15.8632 10.6947C16.1536 10.3411 16.4598 10.0007 16.729 9.6341C17.4021 8.71757 18.0065 7.74866 18.7297 6.87665C20.0389 5.30022 22.3643 5.08811 23.7606 6.35292C25.3153 7.75914 25.3813 9.93263 23.7686 11.4148C22.8131 12.2947 21.6754 12.9886 20.5774 13.7035C18.1543 15.2852 15.7022 16.8171 13.2765 18.3909C12.7486 18.7339 12.3078 18.8465 11.7218 18.4642C8.45413 16.3352 5.15738 14.2508 1.88439 12.1297C0.979043 11.5431 0.316527 10.7601 0.0816109 9.65767C-0.216653 8.26978 0.361399 6.73786 1.51222 6.02821C2.76071 5.26094 4.68227 5.34997 5.66681 6.41053C6.61439 7.42919 7.37985 8.61282 8.22449 9.72313C8.47261 10.0505 8.72072 10.3804 8.96883 10.7077C9.10609 10.6632 9.24334 10.6161 9.37796 10.5716H9.37532Z" fill="black"/>
<path d="M205 14.1198C204.013 14.1198 203.058 14.1198 202.102 14.1198C201.147 14.1198 200.26 14.1198 199.191 14.1198C199.154 14.6068 199.098 15.0232 199.098 15.4369C199.09 17.8356 199.085 20.2369 199.098 22.6356C199.109 25.3983 200.054 26.2939 202.878 26.252C203.227 26.2468 203.572 26.252 204.045 26.252V31.5365C201.168 32.0916 198.349 32.1649 195.707 30.7325C193.344 29.452 192.455 27.2759 192.426 24.7122C192.394 21.8762 192.415 19.0402 192.415 16.2042C192.415 14.0648 192.431 11.9279 192.405 9.79112C192.397 9.17573 192.547 8.74104 193.091 8.36657C193.996 7.74071 194.469 6.80585 194.653 5.72958C194.741 5.21632 194.838 4.70307 194.944 4.10339H199.075V8.78817H205V14.1224V14.1198Z" fill="black"/>
<path d="M190.248 14.4053C188.841 14.4681 187.571 14.4472 186.323 14.5991C184.475 14.8243 183.443 15.9791 183.118 17.7572C183.01 18.3542 182.971 18.9696 182.968 19.5771C182.955 23.0233 182.96 26.4721 182.96 29.9182C182.96 30.3948 182.96 30.8688 182.96 31.4501H176.369V8.95062H182.429C182.461 10.946 182.495 12.9493 182.527 14.9552C182.635 14.9709 182.744 14.984 182.854 14.9997C182.96 14.62 183.044 14.2351 183.171 13.8606C183.509 12.8734 183.768 11.8442 184.232 10.9199C185.241 8.91658 187.257 8.04981 189.443 8.61805C189.749 8.69661 190.2 9.05275 190.211 9.29629C190.277 11.0298 190.245 12.7634 190.245 14.4079L190.248 14.4053Z" fill="black"/>
<path d="M23.1087 31.2747H1.75512C1.34863 25.875 6.22908 20.7974 12.3976 20.766C18.9515 20.7346 23.568 26.3045 23.1087 31.2747Z" fill="black"/>
<path d="M33.0225 31.4789V8.97937H39.5262V31.4789H33.0225Z" fill="black"/>
<path d="M40.1916 3.73941C40.1916 5.98098 38.5868 7.4998 36.2244 7.49195C33.936 7.48409 32.3127 5.96789 32.2837 3.82059C32.252 1.59997 33.87 0.0261532 36.2112 -3.33927e-05C38.5683 -0.02622 40.1863 1.49522 40.189 3.73941H40.1916Z" fill="black"/>
</g>
<defs>
<clipPath id="clip0_99_481">
<rect width="205" height="32" fill="white"/>
</clipPath>
</defs>
</svg>
