<svg width="21" height="26" viewBox="0 0 21 26" fill="none" xmlns="http://www.w3.org/2000/svg">
<g clip-path="url(#clip0_99_442)">
<path d="M10.4999 26C9.5637 26 8.69339 25.5555 8.1681 24.8134L1.84716 15.856C-0.356732 12.735 -0.602901 8.85516 1.18619 5.48125C2.93845 2.178 6.27046 0.130219 10.0987 0.00746303C10.3642 -0.00183663 10.6356 -0.00183663 10.9031 0.00746303C14.7313 0.132079 18.0614 2.178 19.8156 5.48125C21.6066 8.85516 21.3585 12.735 19.1546 15.8578L12.8337 24.8134C12.3084 25.5574 11.4381 26 10.5019 26H10.4999ZM10.4999 2.04595C10.3894 2.04595 10.2809 2.04595 10.1704 2.05153C7.12915 2.15011 4.48137 3.77941 3.08576 6.40935C1.65333 9.10997 1.8491 12.2142 3.61105 14.7102L9.93199 23.6658C10.1161 23.9262 10.3894 23.9541 10.498 23.9541C10.6065 23.9541 10.8798 23.9262 11.064 23.6658L17.3849 14.7102C19.1469 12.2142 19.3426 9.10997 17.9102 6.40935C16.5146 3.77941 13.8668 2.15011 10.8256 2.05153C10.717 2.04781 10.6065 2.04595 10.496 2.04595H10.4999ZM10.4999 15.3352C7.38695 15.3352 4.85547 12.9061 4.85547 9.91905C4.85547 6.93199 7.38695 4.50292 10.4999 4.50292C13.6129 4.50292 16.1444 6.93199 16.1444 9.91905C16.1444 12.9061 13.6129 15.3352 10.4999 15.3352ZM10.4999 6.55071C8.56352 6.55071 6.98765 8.06283 6.98765 9.92091C6.98765 11.779 8.56352 13.2911 10.4999 13.2911C12.4363 13.2911 14.0122 11.779 14.0122 9.92091C14.0122 8.06283 12.4363 6.55071 10.4999 6.55071Z" fill="black"/>
</g>
<defs>
<clipPath id="clip0_99_442">
<rect width="21" height="26" fill="white"/>
</clipPath>
</defs>
</svg>
