<svg width="21" height="21" viewBox="0 0 21 21" fill="none" xmlns="http://www.w3.org/2000/svg">
<g clip-path="url(#clip0_6_403)">
<path d="M16.6961 15.0761C19.8627 10.9107 19.0278 5.26075 15.2999 2.16192C11.716 -0.836021 6.37603 -0.706303 2.99357 2.47901C-0.518421 5.79404 -1.0078 11.0549 1.85649 14.9032C3.41098 16.9931 5.49803 18.2182 8.07445 18.5785C10.6365 18.9244 12.9538 18.2759 15.0697 16.7048C15.4583 17.1084 15.8469 17.512 16.2355 17.9011C17.1135 18.7803 17.9915 19.6595 18.8695 20.5387C19.1862 20.8558 19.5316 21.0576 19.9922 20.9855C20.4528 20.9135 20.7838 20.654 20.9278 20.2072C21.0717 19.7604 20.9853 19.3424 20.6543 19.0109C19.7763 18.1317 18.8983 17.2525 18.0203 16.3733C17.5885 15.9409 17.1567 15.5085 16.7105 15.0761H16.6961ZM9.32668 2.33488C13.1841 2.33488 16.3075 5.44812 16.3219 9.32527C16.3219 13.188 13.2129 16.3157 9.35546 16.3445C5.51242 16.3733 2.34587 13.2168 2.34587 9.33968C2.34587 5.47695 5.46924 2.34929 9.32668 2.33488Z" fill="#8F8F8F"/>
</g>
<defs>
<clipPath id="clip0_6_403">
<rect width="21" height="21" fill="white"/>
</clipPath>
</defs>
</svg>
