<svg width="23" height="24" viewBox="0 0 23 24" fill="none" xmlns="http://www.w3.org/2000/svg">
<path d="M11.499 23.8345C9.10266 23.8345 6.70635 23.8484 4.31003 23.8298C1.83375 23.8112 0.157013 22.1268 0.115894 19.6096C0.0861969 17.8276 0.0976189 16.0455 0.115894 14.2634C0.127316 13.0374 0.837764 12.2185 1.83376 12.2325C2.82518 12.2441 3.50592 13.063 3.51734 14.3053C3.53334 15.9711 3.55161 17.6368 3.50821 19.3025C3.48765 20.1261 3.80974 20.3774 4.58415 20.3727C9.22602 20.3494 13.8656 20.3471 18.5075 20.3727C19.3298 20.3774 19.556 20.0307 19.5377 19.256C19.5012 17.6298 19.5195 16.0013 19.5286 14.3751C19.5377 13.056 20.223 12.2162 21.2533 12.2325C22.2447 12.2464 22.9232 13.0653 22.9323 14.31C22.946 16.092 22.962 17.8741 22.9278 19.6562C22.8798 22.1082 21.2008 23.8065 18.8022 23.8298C16.367 23.8531 13.9319 23.8345 11.499 23.8345Z" fill="black"/>
<path d="M13.2165 5.9906C13.2165 7.03052 13.2165 7.82617 13.2165 8.62181C13.212 10.3643 13.2439 12.1068 13.1914 13.847C13.1571 14.9451 12.4216 15.6803 11.5147 15.6779C10.6009 15.6756 9.87676 14.9474 9.85163 13.8354C9.80366 11.7067 9.83107 9.57798 9.82651 7.44928C9.82651 7.04448 9.82651 6.64201 9.82651 5.99758C9.2417 6.52801 8.90361 6.89326 8.5107 7.18174C7.78198 7.71217 7.01215 7.79825 6.35196 7.08636C5.70776 6.39308 5.50673 5.54625 6.1989 4.79714C7.57867 3.30356 8.98814 1.83557 10.4684 0.449005C11.2154 -0.251255 12.1018 -0.0814245 12.8191 0.637448C14.0686 1.8821 15.3113 3.13372 16.5266 4.4156C17.3467 5.28104 17.381 6.15345 16.7094 6.88861C16.0149 7.65169 15.0486 7.64936 14.176 6.8793C13.9224 6.65597 13.6803 6.42099 13.2188 5.99293L13.2165 5.9906Z" fill="black"/>
</svg>
