<svg width="46" height="28" viewBox="0 0 46 28" fill="none" xmlns="http://www.w3.org/2000/svg">
<path d="M36.8359 23.2594H32.3094C32.3274 23.348 32.3387 23.428 32.3598 23.5051C32.5147 24.0707 32.5801 24.6473 32.5255 25.237C32.3938 26.6566 31.1604 27.8874 29.8005 27.9604C28.4868 28.0306 27.2015 26.9633 26.9437 25.5811C26.811 24.8699 26.9103 24.1691 27.0379 23.4711C27.0482 23.4153 27.06 23.3595 27.0749 23.2853C26.9185 23.2093 26.7595 23.1432 26.6093 23.0574C26.1729 22.8088 26.0345 22.4676 26.1709 21.944C26.2228 21.7438 26.3021 21.5493 26.387 21.3623C26.8187 20.4152 27.2504 19.4675 27.695 18.5278C27.8792 18.1377 27.9028 17.7723 27.7649 17.3465C26.4945 13.4223 25.239 9.49229 23.9805 5.56344C23.9516 5.47425 23.9321 5.37988 23.9172 5.28609C23.7119 4.00467 22.9972 3.27161 21.9182 2.87976C21.1386 2.59666 20.3745 2.25602 19.6151 1.91078C19.118 1.6858 18.9179 1.24216 19.0305 0.750191C19.1772 0.112644 19.7015 -0.162974 20.3138 0.0976835C21.2822 0.509672 22.2454 0.934319 23.2102 1.35724C23.521 1.49361 23.824 1.65185 24.1369 1.78074C24.5156 1.93667 24.7795 2.22437 24.9262 2.63349C25.1104 3.1479 25.2853 3.66748 25.4346 4.1957C25.6244 4.86547 25.7947 5.02371 26.4297 5.02371C32.3552 5.02198 38.2807 5.01968 44.2062 5.01968C44.3426 5.01968 44.4815 5.02601 44.6147 5.05593C45.2029 5.1877 45.4648 5.59566 45.3084 6.24414C45.0876 7.15845 44.8231 8.05954 44.5664 8.96292C43.6814 12.073 42.7922 15.1813 41.9036 18.2896C41.8594 18.4444 41.81 18.598 41.7498 18.7459C41.6191 19.0687 41.3963 19.2753 41.0762 19.2851C40.1938 19.311 39.3113 19.3311 38.4289 19.33C35.6503 19.3271 32.8723 19.3127 30.0938 19.3046C29.4249 19.3029 29.2247 19.4634 28.9623 20.1447C28.8311 20.4859 28.6721 20.8139 28.509 21.1862C28.6093 21.1937 28.688 21.2046 28.7673 21.2046C33.338 21.2046 37.9082 21.2035 42.4789 21.2035C42.5643 21.2035 42.6507 21.204 42.7356 21.2161C43.3109 21.2978 43.5821 21.646 43.5615 22.272C43.5435 22.8232 43.2142 23.165 42.6615 23.1932C42.4495 23.2041 42.237 23.1949 42.0034 23.1949C42.4598 24.8498 42.4207 26.343 40.9954 27.3954C39.9982 28.1313 38.9584 28.2366 37.9354 27.4823C36.5256 26.4425 36.2575 24.989 36.8353 23.2605L36.8359 23.2594ZM26.3422 6.99964C26.7549 8.27071 27.1449 9.4756 27.538 10.6793C27.7243 11.2496 27.8226 11.3359 28.3603 11.3399C29.3719 11.348 30.384 11.3434 31.3956 11.3428C31.4357 11.3428 31.4764 11.3278 31.5175 11.3192C31.5175 11.2484 31.5216 11.192 31.517 11.1362C31.4105 9.93535 31.3024 8.73448 31.1949 7.53304C31.1594 7.13429 31.0483 7.01748 30.686 7.01575C29.537 7.00943 28.3881 7.00425 27.2391 6.99964C26.9576 6.99849 26.6762 6.99964 26.3422 6.99964ZM36.8909 11.2778C37.0237 9.85479 37.1533 8.46232 37.284 7.06006H32.6269C32.7576 8.47785 32.8862 9.87263 33.0159 11.2778H36.8909ZM38.7711 7.0405C38.6316 8.48476 38.4953 9.89852 38.3589 11.3111C38.4124 11.3278 38.4371 11.3416 38.4613 11.3416C39.5408 11.3393 40.6203 11.3382 41.6999 11.3313C41.9288 11.3296 42.0482 11.1742 42.1151 10.9377C42.3482 10.1178 42.5905 9.30068 42.8267 8.48188C42.9625 8.01005 43.0932 7.53592 43.2322 7.0405H38.7705H38.7711ZM33.1949 13.0172C33.3045 14.3441 33.4069 15.6313 33.5222 16.9173C33.5417 17.1377 33.6838 17.2729 33.8932 17.2809C34.1499 17.2907 34.4072 17.2965 34.664 17.2976C35.2017 17.2999 35.7394 17.2982 36.2971 17.2982C36.435 15.8534 36.5698 14.4425 36.7057 13.0172H33.1944H33.1949ZM32.0794 17.2671C31.9559 15.9391 31.8417 14.656 31.713 13.3745C31.6899 13.1426 31.5247 12.9896 31.3215 12.9873C30.313 12.9746 29.305 12.9815 28.2867 12.9815C28.2923 13.0224 28.2923 13.0609 28.3037 13.0949C28.7318 14.3947 29.1614 15.694 29.5905 16.9938C29.6523 17.1808 29.7748 17.2568 29.9471 17.2574C30.3582 17.2591 30.7689 17.2648 31.1795 17.2671C31.4681 17.2689 31.7568 17.2671 32.0794 17.2671ZM41.4832 13.0569H38.204C38.0625 14.4862 37.9236 15.8873 37.7836 17.3005C38.5009 17.3005 39.1848 17.2942 39.8681 17.3034C40.1773 17.3074 40.3425 17.1233 40.4325 16.8258C40.5421 16.4633 40.6445 16.0979 40.7459 15.7325C40.9908 14.8487 41.2332 13.9643 41.4827 13.0575L41.4832 13.0569ZM28.3078 24.7152C28.299 25.5892 28.8954 26.2912 29.658 26.3056C30.4318 26.32 31.0817 25.6208 31.0904 24.7652C31.0992 23.9148 30.4771 23.2053 29.7151 23.1961C28.9345 23.1869 28.3165 23.8538 28.3083 24.7152H28.3078ZM38.0311 24.7244C38.0255 25.5995 38.6234 26.2969 39.387 26.305C40.1624 26.3136 40.8123 25.6076 40.8133 24.7572C40.8138 23.9056 40.1891 23.2013 39.4292 23.1961C38.6491 23.1909 38.0373 23.8601 38.0311 24.7238V24.7244Z" fill="white"/>
<rect y="10" width="14" height="2" rx="1" fill="white"/>
<rect x="5" y="14" width="14" height="2" rx="1" fill="white"/>
<rect x="1" y="18" width="14" height="2" rx="1" fill="white"/>
</svg>
