<svg width="26" height="24" viewBox="0 0 26 24" fill="none" xmlns="http://www.w3.org/2000/svg">
<g filter="url(#filter0_i_93_246)">
<path d="M12.1727 0.842578C12.4768 -0.068699 13.7657 -0.0686953 14.0698 0.842582L16.3736 7.74633C16.5098 8.15452 16.8919 8.42979 17.3222 8.42979H24.7195C25.6947 8.42979 26.0931 9.68298 25.297 10.2462L19.3588 14.447C18.9989 14.7016 18.8482 15.1618 18.9877 15.58L21.2667 22.4094C21.5726 23.326 20.5295 24.1003 19.7406 23.5423L13.6988 19.2681C13.3527 19.0233 12.8898 19.0233 12.5437 19.2681L6.50191 23.5423C5.71302 24.1003 4.66993 23.326 4.97581 22.4094L7.25479 15.58C7.39433 15.1618 7.2436 14.7016 6.88373 14.447L0.94546 10.2462C0.149356 9.68298 0.547815 8.42979 1.52298 8.42979H8.9203C9.35061 8.42979 9.73267 8.15451 9.86888 7.74633L12.1727 0.842578Z" fill="black"/>
</g>
<defs>
<filter id="filter0_i_93_246" x="0.521484" y="0.159119" width="25.2002" height="23.5713" filterUnits="userSpaceOnUse" color-interpolation-filters="sRGB">
<feFlood flood-opacity="0" result="BackgroundImageFix"/>
<feBlend mode="normal" in="SourceGraphic" in2="BackgroundImageFix" result="shape"/>
<feColorMatrix in="SourceAlpha" type="matrix" values="0 0 0 0 0 0 0 0 0 0 0 0 0 0 0 0 0 0 127 0" result="hardAlpha"/>
<feOffset dy="2"/>
<feComposite in2="hardAlpha" operator="arithmetic" k2="-1" k3="1"/>
<feColorMatrix type="matrix" values="0 0 0 0 0 0 0 0 0 0 0 0 0 0 0 0 0 0 0.25 0"/>
<feBlend mode="normal" in2="shape" result="effect1_innerShadow_93_246"/>
</filter>
</defs>
</svg>
