<svg width="27" height="24" viewBox="0 0 27 24" fill="none" xmlns="http://www.w3.org/2000/svg">
<g filter="url(#filter0_i_99_438)">
<path d="M12.5535 0.842594C12.8576 -0.0686837 14.1466 -0.06868 14.4507 0.842597L16.7545 7.74635C16.8907 8.15453 17.2727 8.42981 17.7031 8.42981H25.1004C26.0755 8.42981 26.474 9.683 25.6779 10.2462L19.7396 14.4471C19.3798 14.7016 19.229 15.1618 19.3686 15.58L21.6475 22.4094C21.9534 23.326 20.9103 24.1004 20.1214 23.5423L14.0796 19.2682C13.7335 19.0233 13.2707 19.0233 12.9246 19.2682L6.88277 23.5423C6.09388 24.1004 5.05079 23.326 5.35667 22.4094L7.63565 15.58C7.77519 15.1618 7.62446 14.7016 7.26459 14.4471L1.32632 10.2462C0.530216 9.683 0.928674 8.42981 1.90384 8.42981H9.30116C9.73147 8.42981 10.1135 8.15453 10.2497 7.74635L12.5535 0.842594Z" fill="#F0F0F0"/>
</g>
<defs>
<filter id="filter0_i_99_438" x="0.902344" y="0.159134" width="25.2002" height="25.5713" filterUnits="userSpaceOnUse" color-interpolation-filters="sRGB">
<feFlood flood-opacity="0" result="BackgroundImageFix"/>
<feBlend mode="normal" in="SourceGraphic" in2="BackgroundImageFix" result="shape"/>
<feColorMatrix in="SourceAlpha" type="matrix" values="0 0 0 0 0 0 0 0 0 0 0 0 0 0 0 0 0 0 127 0" result="hardAlpha"/>
<feOffset dy="2"/>
<feGaussianBlur stdDeviation="1.6"/>
<feComposite in2="hardAlpha" operator="arithmetic" k2="-1" k3="1"/>
<feColorMatrix type="matrix" values="0 0 0 0 0 0 0 0 0 0 0 0 0 0 0 0 0 0 0.17 0"/>
<feBlend mode="normal" in2="shape" result="effect1_innerShadow_99_438"/>
</filter>
</defs>
</svg>
