<svg width="12" height="14" viewBox="0 0 12 14" fill="none" xmlns="http://www.w3.org/2000/svg">
<g clip-path="url(#clip0_7_448)">
<path d="M6.01687 2.10123C7.34508 2.11178 8.54561 2.50741 9.60783 3.30042C9.69649 3.36548 9.74437 3.36021 9.81531 3.28284C9.91284 3.17382 10.0192 3.07184 10.1292 2.97513C10.4129 2.7272 10.8225 2.74303 11.0885 3.00502C11.3457 3.25822 11.3652 3.65913 11.1276 3.94046C11.0229 4.06179 10.9059 4.17432 10.7889 4.2851C10.7321 4.33961 10.7197 4.38005 10.7729 4.44863C11.2623 5.08163 11.6064 5.78497 11.8067 6.55689C12.0249 7.39914 12.0585 8.25018 11.9007 9.10474C11.64 10.5132 10.9538 11.6807 9.85255 12.6056C9.1113 13.2298 8.25834 13.6431 7.30962 13.8541C6.48325 14.0369 5.65157 14.051 4.82521 13.8822C3.39769 13.5903 2.22198 12.8799 1.30696 11.7493C0.771416 11.0882 0.400793 10.3461 0.189769 9.52675C-0.0265747 8.68801 -0.0584943 7.84049 0.0993304 6.98945C0.358234 5.58804 1.04273 4.42577 2.13332 3.50439C2.88166 2.87139 3.74349 2.4529 4.70462 2.2419C5.13731 2.14694 5.57532 2.10123 6.01864 2.10299L6.01687 2.10123ZM6.00091 3.49208C3.47217 3.49208 1.41158 5.53353 1.40626 8.0427C1.40094 10.5501 3.4704 12.6039 6.00091 12.6056C8.52788 12.6056 10.5902 10.5642 10.5956 8.05501C10.6009 5.5476 8.53143 3.49208 6.00091 3.49384V3.49208Z" fill="black"/>
<path d="M5.99379 1.39086C5.52031 1.39086 5.04506 1.39614 4.57159 1.39086C4.19387 1.38559 3.8995 1.0937 3.88532 0.727964C3.87113 0.341126 4.1655 0.0175894 4.55563 0.00703927C4.87483 -0.00175249 5.1958 0.00352256 5.51499 0.00352256C6.14629 0.00352256 6.77936 5.85926e-06 7.41066 0.00703927C7.82384 0.010556 8.13063 0.330576 8.11467 0.729722C8.10048 1.09722 7.80079 1.38735 7.41598 1.39262C6.94251 1.3979 6.46726 1.39262 5.99379 1.39262V1.39086Z" fill="black"/>
<path d="M6.69959 6.6413C6.69959 7.00176 6.70491 7.36222 6.69959 7.72268C6.69249 8.03743 6.46374 8.31349 6.17469 8.37327C5.82535 8.44537 5.5097 8.30118 5.3696 7.99347C5.33059 7.90907 5.30754 7.81236 5.30576 7.71917C5.30044 7.00528 5.29867 6.29139 5.30576 5.57749C5.30931 5.22582 5.57708 4.94449 5.92288 4.90405C6.2669 4.8636 6.59142 5.08164 6.68185 5.41924C6.70136 5.49485 6.70136 5.57749 6.70313 5.65838C6.70668 5.82191 6.70491 5.98543 6.70491 6.15072C6.70491 6.31424 6.70491 6.47777 6.70491 6.64306C6.70491 6.64306 6.70313 6.64306 6.70136 6.64306L6.69959 6.6413Z" fill="black"/>
</g>
<defs>
<clipPath id="clip0_7_448">
<rect width="12" height="14" fill="white"/>
</clipPath>
</defs>
</svg>
