<svg width="28" height="8" viewBox="0 0 28 8" fill="none" xmlns="http://www.w3.org/2000/svg">
<path d="M7.44056 4.27666C7.41315 6.1448 5.78667 7.73143 3.95687 7.6756C2.0951 7.61744 0.564556 5.99358 0.621665 4.12777C0.678775 2.23637 2.25728 0.69626 4.10306 0.733483C5.94428 0.770706 7.46796 2.38759 7.44283 4.27433L7.44056 4.27666Z" fill="black"/>
<path d="M17.7206 4.17895C17.748 6.04709 16.1946 7.65234 14.3329 7.6756C12.4985 7.69886 10.8971 6.09129 10.8994 4.22781C10.9017 2.33641 12.4437 0.745115 14.2849 0.735809C16.1329 0.726503 17.6909 2.28755 17.7206 4.17895Z" fill="black"/>
<path d="M27.9999 4.22315C28.0044 6.08664 26.4145 7.68956 24.571 7.67793C22.7206 7.66629 21.1558 6.05407 21.181 4.18593C21.2084 2.28755 22.7595 0.726504 24.6075 0.738136C26.451 0.749768 27.9953 2.33873 27.9999 4.22548V4.22315Z" fill="black"/>
</svg>
